<svg xmlns="http://www.w3.org/2000/svg" style="display:none" aria-hidden="true">

  <symbol id="icon-arrow-left" viewBox="0 0 24 24">
    <path stroke-linecap="round" stroke-linejoin="round" d="M10.5 19.5 3 12m0 0 7.5-7.5M3 12h18" />
  </symbol>

  <symbol id="icon-arrow-right" viewBox="0 0 24 24">
    <path stroke-linecap="round" stroke-linejoin="round" d="M13.5 4.5 21 12m0 0-7.5 7.5M21 12H3" />
  </symbol>

  <symbol id="icon-arrow-up" viewBox="0 0 24 24">
    <path stroke-linecap="round" stroke-linejoin="round" d="M4.5 10.5 12 3m0 0 7.5 7.5M12 3v18" />
  </symbol>

  <symbol id="icon-arrow-down" viewBox="0 0 24 24">
    <path stroke-linecap="round" stroke-linejoin="round" d="M19.5 13.5 12 21m0 0-7.5-7.5M12 21V3" />
  </symbol>

  <symbol id="icon-thumb-up" viewBox="0 0 24 24">
    <path stroke-linecap="round" stroke-linejoin="round" d="M6.633 10.25c.806 0 1.533-.446 2.031-1.08a9.041 9.041 0 0 1 2.861-2.4c.723-.384 1.35-.956 1.653-1.715a4.498 4.498 0 0 0 .322-1.672V2.75a.75.75 0 0 1 .75-.75 2.25 2.25 0 0 1 2.25 2.25c0 1.152-.26 2.243-.723 3.218-.266.558.107 1.282.725 1.282h3.126c1.026 0 1.945.694 2.054 1.715.045.422.068.85.068 1.285a11.95 11.95 0 0 1-2.649 7.521c-.388.482-.987.729-1.605.729H13.48c-.483 0-.964-.078-1.423-.23l-3.114-1.04a4.501 4.501 0 0 0-1.423-.23H5.909M14.25 8.75h2.25M5.909 18.5c.083.205.173.405.27.602.197.4-.078.898-.523.898h-.908c-.889 0-1.713-.518-1.972-1.368a12 12 0 0 1-.521-3.507c0-1.553.295-3.036.831-4.398C3.387 9.953 4.167 9.5 5 9.5h1.053c.472 0 .745.556.5.96a8.958 8.958 0 0 0-1.302 4.665c0 1.194.232 2.333.654 3.375z" />
  </symbol>

  <symbol id="icon-thumb-down" viewBox="0 0 24 24">
    <g transform="rotate(180 12 12)">
      <path stroke-linecap="round" stroke-linejoin="round" d="M6.633 10.25c.806 0 1.533-.446 2.031-1.08a9.041 9.041 0 0 1 2.861-2.4c.723-.384 1.35-.956 1.653-1.715a4.498 4.498 0 0 0 .322-1.672V2.75a.75.75 0 0 1 .75-.75 2.25 2.25 0 0 1 2.25 2.25c0 1.152-.26 2.243-.723 3.218-.266.558.107 1.282.725 1.282h3.126c1.026 0 1.945.694 2.054 1.715.045.422.068.85.068 1.285a11.95 11.95 0 0 1-2.649 7.521c-.388.482-.987.729-1.605.729H13.48c-.483 0-.964-.078-1.423-.23l-3.114-1.04a4.501 4.501 0 0 0-1.423-.23H5.909M14.25 8.75h2.25M5.909 18.5c.083.205.173.405.27.602.197.4-.078.898-.523.898h-.908c-.889 0-1.713-.518-1.972-1.368a12 12 0 0 1-.521-3.507c0-1.553.295-3.036.831-4.398C3.387 9.953 4.167 9.5 5 9.5h1.053c.472 0 .745.556.5.96a8.958 8.958 0 0 0-1.302 4.665c0 1.194.232 2.333.654 3.375z"/>
    </g>
  </symbol>

  <symbol id="icon-classify" viewBox="0 0 24 24">
    <path stroke-linecap="round" stroke-linejoin="round" d="M9.568 3H5.25A2.25 2.25 0 0 0 3 5.25v4.318c0 .597.237 1.17.659 1.591l9.581 9.581c.699.699 1.78.872 2.607.33a18.095 18.095 0 0 0 5.223-5.223c.542-.827.369-1.908-.33-2.607L11.16 3.66A2.25 2.25 0 0 0 9.568 3z" />
    <path stroke-linecap="round" stroke-linejoin="round" d="M6 6h.008v.008H6V6z" />
  </symbol>

  <symbol id="icon-search" viewBox="0 0 24 24">
    <path stroke-linecap="round" stroke-linejoin="round" d="m21 21-5.197-5.197m0 0A7.5 7.5 0 1 0 5.196 5.196a7.5 7.5 0 0 0 10.607 10.607z" />
  </symbol>

  <symbol id="icon-settings" viewBox="0 0 24 24">
    <path stroke-linecap="round" stroke-linejoin="round" d="M10.343 3.94c.09-.542.56-.94 1.11-.94h1.093c.55 0 1.02.398 1.11.94l.149.894c.07.424.384.764.78.93.398.164.855.142 1.205-.108l.737-.527a1.125 1.125 0 0 1 1.45.12l.773.774c.39.389.44 1.002.12 1.45l-.527.737c-.25.35-.272.806-.107 1.204.165.397.505.71.93.78l.893.15c.543.09.94.56.94 1.109v1.094c0 .55-.397 1.02-.94 1.11l-.893.149c-.425.07-.765.383-.93.78-.165.398-.143.854.107 1.204l.527.738c.32.447.269 1.06-.12 1.45l-.774.773a1.125 1.125 0 0 1-1.449.12l-.738-.527c-.35-.25-.806-.272-1.203-.107-.397.165-.71.505-.781.929l-.149.894c-.09.542-.56.94-1.11.94h-1.094c-.55 0-1.019-.398-1.11-.94l-.148-.894c-.071-.424-.384-.764-.781-.93-.398-.164-.854-.142-1.204.108l-.738.527c-.447.32-1.06.269-1.45-.12l-.773-.774a1.125 1.125 0 0 1-.12-1.45l.527-.737c.25-.35.273-.806.108-1.204-.165-.397-.505-.71-.93-.78l-.894-.15c-.542-.09-.94-.56-.94-1.109v-1.094c0-.55.398-1.02.94-1.11l.894-.149c.424-.07.765-.383.93-.78.165-.398.143-.854-.108-1.204l-.526-.738a1.125 1.125 0 0 1 .12-1.45l.773-.773a1.125 1.125 0 0 1 1.45-.12l.737.527c.35.25.807.272 1.204.107.397-.165.71-.505.78-.929l.15-.894z" />
    <path stroke-linecap="round" stroke-linejoin="round" d="M15 12a3 3 0 1 1-6 0 3 3 0 0 1 6 0z" />
  </symbol>

  <symbol id="icon-plus" viewBox="0 0 24 24">
    <path stroke-linecap="round" stroke-linejoin="round" d="M12 4.5v15m7.5-7.5h-15" />
  </symbol>

  <symbol id="icon-edit" viewBox="0 0 24 24">
    <path stroke-linecap="round" stroke-linejoin="round" d="m16.862 4.487 1.687-1.688a1.875 1.875 0 1 1 2.652 2.652L10.582 16.07a4.5 4.5 0 0 1-1.897 1.13L6 18l.8-2.685a4.5 4.5 0 0 1 1.13-1.897l8.932-8.931zm0 0L19.5 7.125" />
  </symbol>

  <symbol id="icon-close" viewBox="0 0 24 24">
    <path stroke-linecap="round" stroke-linejoin="round" d="M6 18 18 6M6 6l12 12" />
  </symbol>

  <symbol id="icon-check" viewBox="0 0 24 24">
    <path stroke-linecap="round" stroke-linejoin="round" d="m4.5 12.75 6 6 9-13.5" />
  </symbol>

  <symbol id="icon-back" viewBox="0 0 24 24">
    <path stroke-linecap="round" stroke-linejoin="round" d="M15.75 19.5 8.25 12l7.5-7.5" />
  </symbol>

  <symbol id="icon-issue" viewBox="0 0 24 24">
    <path stroke-linecap="round" stroke-linejoin="round" d="M3 3v1.5M3 21v-6m0 0 2.77-.693a9 9 0 0 1 6.208.682l.108.054a9 9 0 0 0 6.086.71l3.114-.732a48.524 48.524 0 0 1-.005-10.499l-3.11.732a9 9 0 0 1-6.085-.711l-.108-.054a9 9 0 0 0-6.208-.682L3 4.5M3 15V4.5" />
  </symbol>

  <!-- Radio-active: radiation trefoil / Y-symbol (three 60° blades + center dot) -->
  <symbol id="icon-radio-active" viewBox="0 0 24 24">
    <circle cx="12" cy="12" r="2"   style="fill:currentColor;stroke:none"/>
    <path style="fill:currentColor;stroke:none" d="M9.75 8.1 A4.5 4.5 0 0 1 14.25 8.1 L16.75 3.77 A9.5 9.5 0 0 0 7.25 3.77 Z"/>
    <path style="fill:currentColor;stroke:none" d="M16.5 12 A4.5 4.5 0 0 1 14.25 15.9 L16.75 20.23 A9.5 9.5 0 0 0 21.5 12 Z"/>
    <path style="fill:currentColor;stroke:none" d="M9.75 15.9 A4.5 4.5 0 0 1 7.5 12 L2.5 12 A9.5 9.5 0 0 0 7.25 20.23 Z"/>
  </symbol>

  <!-- Signed: guarantee seal — ribbon tails behind, badge on top -->
  <symbol id="icon-signed" viewBox="0 0 24 24">
    <!-- ribbons flush with badge bottom (y=14), badge paints over attachment line -->
    <path stroke-linecap="round" stroke-linejoin="round" d="M12 14 L7 14 L5.5 22 L8 19.5 L10.5 22 Z"/>
    <path stroke-linecap="round" stroke-linejoin="round" d="M12 14 L17 14 L18.5 22 L16 19.5 L13.5 22 Z"/>
    <!-- badge drawn last → in front of ribbons -->
    <g transform="translate(4 0) scale(0.667)">
      <path vector-effect="non-scaling-stroke" stroke-linecap="round" stroke-linejoin="round" d="M9 12.75 11.25 15 15 9.75M21 12c0 1.268-.63 2.39-1.593 3.068a3.745 3.745 0 0 1-1.043 3.296 3.745 3.745 0 0 1-3.296 1.043A3.745 3.745 0 0 1 12 21c-1.268 0-2.39-.63-3.068-1.593a3.745 3.745 0 0 1-3.296-1.043 3.745 3.745 0 0 1-1.043-3.296A3.745 3.745 0 0 1 3 12c0-1.268.63-2.39 1.593-3.068a3.745 3.745 0 0 1 1.043-3.296 3.745 3.745 0 0 1 3.296-1.043A3.745 3.745 0 0 1 12 3c1.268 0 2.39.63 3.068 1.593a3.745 3.745 0 0 1 3.296 1.043 3.745 3.745 0 0 1 1.043 3.296A3.745 3.745 0 0 1 21 12z"/>
    </g>
  </symbol>

  <!-- Fake: minus sign inside a circle (asserted to be false) -->
  <symbol id="icon-fake" viewBox="0 0 24 24">
    <circle cx="12" cy="12" r="9"/>
    <path stroke-linecap="round" d="M8 12h8"/>
  </symbol>

  <!-- Neutral: plain circle, no judgement -->
  <symbol id="icon-neutral" viewBox="0 0 24 24">
    <circle cx="12" cy="12" r="9"/>
  </symbol>

  <!-- Fakt: circle with checkmark (verified true) -->
  <symbol id="icon-fakt" viewBox="0 0 24 24">
    <circle cx="12" cy="12" r="9"/>
    <path stroke-linecap="round" stroke-linejoin="round" d="M8 12.5 11 15.5 16 8.5"/>
  </symbol>

  <!-- Proclaimed fakt: shield with checkmark (asserted as verified) -->
  <symbol id="icon-proclaimed-fakt" viewBox="0 0 24 24">
    <path stroke-linecap="round" stroke-linejoin="round" d="M9 12.75 11.25 15 15 9.75m-3-7.036A11.959 11.959 0 0 1 3.598 6 11.99 11.99 0 0 0 3 9.749c0 5.592 3.824 10.29 9 11.623 5.176-1.332 9-6.03 9-11.622 0-1.31-.21-2.571-.598-3.751h-.152c-3.196 0-6.1-1.248-8.25-3.285z"/>
  </symbol>

  <!-- Unclear: question mark inside a circle -->
  <symbol id="icon-unclear" viewBox="0 0 24 24">
    <path stroke-linecap="round" stroke-linejoin="round" d="M9.879 7.519c1.171-1.025 3.071-1.025 4.242 0 1.172 1.025 1.172 2.687 0 3.712-.203.179-.43.326-.67.442-.745.361-1.45.999-1.45 1.827v.75M21 12a9 9 0 1 1-18 0 9 9 0 0 1 18 0zm-9 5.25h.008v.008H12v-.008z"/>
  </symbol>

  <!-- Counter-question: speech bubble containing a question mark -->
  <symbol id="icon-counter-question" viewBox="0 0 24 24">
    <path stroke-linecap="round" stroke-linejoin="round" d="M2.25 12.76c0 1.6 1.123 2.994 2.707 3.227 1.087.16 2.185.283 3.293.369V21l4.076-4.076a1.526 1.526 0 0 1 1.037-.443 48.282 48.282 0 0 0 5.68-.494c1.584-.233 2.707-1.626 2.707-3.228V6.741c0-1.602-1.123-2.995-2.707-3.228A48.394 48.394 0 0 0 12 3c-2.392 0-4.744.175-7.043.513C3.373 3.746 2.25 5.14 2.25 6.741v6.018z"/>
    <path stroke-linecap="round" stroke-linejoin="round" d="M9.879 7.519c1.171-1.025 3.071-1.025 4.242 0 1.172 1.025 1.172 2.687 0 3.712-.203.179-.43.326-.67.442-.745.361-1.45.999-1.45 1.827"/>
    <path d="M12 14.25h.008v.008H12v-.008z" stroke-width="2.5"/>
  </symbol>

  <!-- Trash / delete -->
  <symbol id="icon-trash" viewBox="0 0 24 24">
    <path stroke-linecap="round" stroke-linejoin="round" d="M3 6h18M8 6V4a2 2 0 0 1 2-2h4a2 2 0 0 1 2 2v2M19 6l-1 14a2 2 0 0 1-2 2H8a2 2 0 0 1-2-2L5 6M10 11v6M14 11v6"/>
  </symbol>

</svg>
